<svg xmlns="http://www.w3.org/2000/svg" xmlns:xlink="http://www.w3.org/1999/xlink" version="1.1" width="752.895" height="239.297" viewBox="0 0 752.895 239.297">
<defs>
<clipPath id="clip_0">
<path transform="matrix(1,0,0,-1,0,239.297)" d="M0 239.297H752.895V0H0Z"/>
</clipPath>
</defs>
<g id="layer_1" data-name="Layer 1">
<g clip-path="url(#clip_0)">
<path transform="matrix(1,0,0,-1,199.5382,191.2611)" d="M0 0-.026-.038C-15.707-17.608-37.048-30.056-61.2-34.531-65.4-30.126-68.832-24.856-71.707-19.523-78.347-7.229-81.734 6.749-80.678 20.727-79.705 33.539-75.062 46.377-68.032 57.128-60.88 68.07-50.443 75.351-38.284 79.461-41.965 77.694-67.321 64.094-59.17 28.276-50.385-10.309-17.512-8.522-17.512-8.522-11.954-8.522-6.864-6.505-2.939-3.163-1.94-2.126-.96-1.076 0 0" fill="#cedddd"/>
<path transform="matrix(1,0,0,-1,161.4916,111.684497)" d="M0 0C-.064-.032-.141-.07-.237-.115-12.396-4.226-22.833-11.506-29.985-22.449-37.016-33.2-41.658-46.038-42.631-58.85-43.688-72.828-40.3-86.806-33.661-99.099-30.786-104.433-27.354-109.703-23.153-114.108-29.646-115.318-36.343-115.952-43.188-115.952-52.024-115.952-60.604-114.895-68.826-112.911-69.927-111.566-89.45-86.882-72.399-46.063-63.627-25.074-50.039-14.266-35.421-8.215-25.836-4.239-15.796-2.318-6.397-.909-4.226-.583-2.087-.288 0 0" fill="#90a09d"/>
<path transform="matrix(1,0,0,-1,204.5197,177.2897)" d="M0 0C0-1.127-.083-2.241-.243-3.33-.301-3.695-.365-4.053-.435-4.412-.474-4.597-.512-4.783-.557-4.969-.595-5.174-.647-5.378-.704-5.583-.711-5.628-.724-5.673-.736-5.711-.903-6.32-1.089-6.915-1.3-7.498-1.383-7.722-1.466-7.946-1.556-8.164-1.588-8.247-1.62-8.337-1.658-8.42-1.742-8.612-1.818-8.798-1.908-8.983-1.953-9.092-2.004-9.208-2.055-9.316-2.145-9.502-2.228-9.681-2.324-9.861-2.446-10.11-2.574-10.354-2.708-10.591-2.824-10.808-2.939-11.013-3.067-11.224-3.112-11.308-3.163-11.385-3.214-11.468-3.368-11.724-3.528-11.974-3.695-12.223-3.701-12.23-3.707-12.236-3.714-12.249-3.906-12.537-4.104-12.819-4.309-13.101-4.514-13.376-4.732-13.658-4.95-13.927L-4.982-13.971C-5.942-15.047-6.922-16.097-7.921-17.134-11.846-20.477-16.936-22.494-22.494-22.494-22.494-22.494-55.367-24.28-64.152 14.304-72.303 50.123-46.947 63.723-43.265 65.49-43.137 65.535-43.003 65.58-42.875 65.624-42.247 65.714-41.62 65.797-40.998 65.887-41.306 65.778-41.613 65.663-41.914 65.535-50.027 62.679-55.821 55.072-55.821 46.127-55.821 40.48-53.087 33.558-48.336 30.222-42.875 26.387-35.671 25.49-29.23 24.575-24.498 23.902-19.888 23.102-15.572 21.418V21.405C-15.527 21.392-15.476 21.373-15.431 21.36-15.38 21.341-15.335 21.328-15.29 21.309-13.049 20.413-10.892 19.273-8.849 17.788-7.972 17.154-7.159 16.456-6.397 15.7-6.32 15.623-6.249 15.553-6.179 15.476-6.07 15.367-5.968 15.258-5.865 15.143-2.222 11.148 0 5.833 0 0" fill="#e21a77"/>
<path transform="matrix(1,0,0,-1,191.039,38.004594)" d="M0 0C-5.663 5.772-12.512 10.373-19.709 14.113-41.578 25.478-67.299 28.936-91.479 24.434-113.637 20.308-134.024 9.259-149.587-7.041-164.379-22.533-174.385-42.332-177.99-63.453-179.023-69.51-179.537-75.655-179.537-81.799-179.537-107.021-170.919-130.241-156.435-148.627-141.972-167.053-121.664-180.645-98.325-186.648-98.325-186.648-98.344-186.628-98.365-186.589-99.474-185.241-118.99-160.555-101.95-119.74-93.173-98.759-79.582-87.941-64.96-81.898-64.326-81.621-63.672-81.363-63.038-81.125-62.583-80.947-62.107-80.769-61.632-80.61-61.533-80.571-61.414-80.531-61.314-80.491-60.74-80.273-60.166-80.075-59.571-79.877-59.512-79.857-59.452-79.838-59.393-79.818-58.343-79.461-57.273-79.124-56.203-78.827-55.965-78.748-55.728-78.669-55.49-78.609-55.014-78.471-54.539-78.332-54.043-78.213-53.409-78.035-52.775-77.876-52.141-77.698-51.567-77.559-50.972-77.42-50.398-77.282-49.784-77.143-49.169-77.004-48.555-76.866-48.04-76.747-47.525-76.648-47.01-76.529-45.028-76.113-43.047-75.756-41.086-75.4-40.551-75.32-40.016-75.221-39.501-75.142-38.292-74.944-37.123-74.766-35.934-74.587-33.775-74.27-31.635-73.973-29.555-73.676-29.495-73.676-29.436-73.676-29.396-73.656-28.762-73.577-28.148-73.498-27.514-73.398-27.435-73.379-27.336-73.379-27.237-73.359-25.394-73.101-23.591-72.864-21.848-72.586-1.151-69.293 13.931-51.15 13.707-30.248 13.605-20.753 9.611-11.545 3.736-4.205 2.561-2.738 1.312-1.338 0 0" fill="#2a74b9"/>
<path transform="matrix(1,0,0,-1,438.7955,104.38789)" d="M0 0C-3.676-.109-7.958 .262-12.217-.485-17.668-1.442-21.271-5.16-21.38-10.122-21.49-15.113-18.072-19.167-12.573-19.985-8.499-20.59-4.307-20.635-.243-19.938 6.68-18.751 10.592-14.919 11.542-8.67 11.861-6.572 11.661-4.401 11.799-2.27 11.916-.468 11.106 .074 9.399 .019 6.467-.074 3.531-.003 0 0M35.364 3.289C35.361-.996 35.222-5.285 35.386-9.563 35.633-16.015 38.313-17.292 42.72-16.831 44.627-16.631 45.237-17.54 45.217-19.325 45.161-24.483 45.203-29.641 45.175-34.799 45.169-35.906 45.218-37.181 43.553-37.146 38.243-37.035 32.891-37.696 27.634-36.563 22.814-35.524 19.106-32.838 16.59-28.56 16.169-27.845 15.737-26.661 14.871-28.217 10.631-35.828 3.692-39.052-4.562-39.665-12.989-40.29-21.436-40.206-29.378-36.663-39.612-32.098-45.145-24.065-45.903-13.001-46.57-3.283-43.33 4.963-35.216 10.848-29.357 15.099-22.596 16.784-15.497 16.951-7.396 17.142 .714 17.056 8.818 16.939 11.048 16.907 11.889 17.49 11.851 19.849 11.737 26.991 8.017 31.131 .848 32.033-2.99 32.516-6.774 32.477-10.485 31.46-14.225 30.435-17.033 28.125-18.268 24.395-18.818 22.733-19.697 22.393-21.22 22.405-27.497 22.457-33.775 22.427-40.053 22.441-43.1 22.448-43.255 22.575-42.563 25.546-39.539 38.527-31.964 47.397-18.871 50.917-8.217 53.781 2.557 53.751 13.098 50.476 25.608 46.59 32.265 37.515 34.392 24.887 35.597 17.734 35.23 10.499 35.364 3.289" fill="#ffffff"/>
<path transform="matrix(1,0,0,-1,692.8984,112.4454)" d="M0 0C6.591 19.332 14.283 37.431 21.705 55.636 22.496 57.578 23.504 58.253 25.563 58.217 32.315 58.098 39.069 58.169 45.823 58.156 48.941 58.151 48.989 58.092 47.7 55.125 42.832 43.924 37.944 32.732 33.069 21.535 24.935 2.847 16.825-15.85 8.662-34.525 5.988-40.643 2.898-46.538-1.18-51.875-7.967-60.759-16.867-65.528-28.115-65.717-32.007-65.782-35.901-65.698-39.794-65.737-41.451-65.753-42.235-65.19-42.207-63.379-42.121-57.747-42.123-52.113-42.189-46.481-42.21-44.724-41.556-44.086-39.815-44.141-36.879-44.233-33.937-44.176-30.997-44.164-25.589-44.143-21.343-41.982-18.379-37.387-17.342-35.778-16.712-33.932-15.673-32.376-12.57-27.727-13.488-23.547-15.661-18.663-26.494 5.682-36.939 30.198-47.52 54.655-47.74 55.164-47.945 55.681-48.175 56.186-48.776 57.511-48.601 58.247-46.899 58.237-39.431 58.194-31.962 58.17-24.495 58.234-22.791 58.248-22.387 57.144-21.901 55.959-14.824 38.725-7.399 21.626-1.465 3.943-1.093 2.834-.651 1.747 0 0" fill="#ffffff"/>
<path transform="matrix(1,0,0,-1,323.6612,89.415699)" d="M0 0C-3.178 .003-6.357 .055-9.534-.013-11.163-.048-11.942 .543-12.262 2.206-14.093 11.725-18.804 15.58-28.542 15.638-30.445 15.65-32.339 15.661-34.239 15.322-40.999 14.115-45.054 10.599-46.148 3.828-47.442-4.186-47.461-12.337-46.186-20.346-44.929-28.235-39.943-32.01-31.243-32.606-28.527-32.792-25.827-32.558-23.203-31.935-17.003-30.463-13.054-25.981-12.392-19.571-12.187-17.591-11.552-16.827-9.479-16.866-3.125-16.985 3.233-16.972 9.588-16.892 11.65-16.866 12.124-17.596 11.93-19.592 11.207-27.041 9.483-34.147 5.143-40.379-.319-48.221-8.221-52.151-17.373-53.752-26.214-55.298-35.104-55.251-43.863-53.197-58.383-49.791-67.058-40.588-69.626-25.969-71.741-13.932-71.828-1.761-69.447 10.223-66.512 24.994-57.232 33.933-42.438 36.791-32.919 38.63-23.28 38.684-13.841 36.258 .996 32.446 8.9 22.341 11.329 7.568 11.612 5.849 11.719 4.1 12.004 2.382 12.309 .548 11.491-.05 9.772-.022 6.515 .031 3.257-.003 0 0" fill="#ffffff"/>
<path transform="matrix(1,0,0,-1,590.2733,73.2762)" d="M0 0C.009 11.584 .014 23.168 .029 34.752 .034 38.088 .08 38.131 3.294 38.131 9.333 38.133 15.372 38.063 21.409 38.151 23.403 38.18 24.07 37.427 24.034 35.503 23.949 31.062 23.998 26.617 24.003 22.174 24.007 19.092 24.014 19.087 27.221 19.083 33.339 19.074 39.458 19.009 45.574 19.102 47.549 19.133 48.253 18.43 48.226 16.496 48.15 11.181 48.15 5.864 48.209 .549 48.232-1.472 47.475-2.239 45.394-2.203 39.119-2.097 32.84-2.218 26.565-2.12 24.603-2.089 23.932-2.738 23.948-4.71 24.023-13.833 23.901-22.959 23.997-32.082 24.097-41.669 28.707-46.323 38.338-46.729 41.353-46.856 44.375-46.855 47.393-46.843 49.033-46.836 49.845-47.352 49.815-49.184 49.723-54.816 49.764-60.45 49.777-66.083 49.78-67.389 49.666-68.419 47.921-68.413 40.069-68.385 32.198-68.727 24.457-66.933 10.234-63.637 1.606-53.827 .398-39.251-.592-27.295 .208-15.305 0-3.332-.019-2.222-.001-1.111 0 0" fill="#ffffff"/>
<path transform="matrix(1,0,0,-1,344.6172,67.3705)" d="M0 0C.008 14.673 .069 29.346-.019 44.018-.033 46.429 .71 47.204 3.103 47.145 8.898 47.003 14.698 47.101 20.496 47.084 23.626 47.075 23.703 46.998 23.701 43.876 23.685 16.354 23.659-11.167 23.65-38.689 23.649-40.268 23.577-41.847 23.911-43.425 25.033-48.723 28.16-51.522 33.594-51.875 35.97-52.029 38.356-52.073 40.737-52.076 42.354-52.078 43.019-52.798 43.01-54.384 42.977-60.253 42.981-66.122 42.986-71.991 42.988-73.424 42.471-74.166 40.878-74.135 34.777-74.015 28.666-74.387 22.602-73.245 10.194-70.909 3.556-64.523 1.071-52.251 .348-48.679-.066-45.071-.049-41.401 .013-27.601-.008-13.8 0 0" fill="#ffffff"/>
<path transform="matrix(1,0,0,-1,492.0704,112.5634)" d="M0 0C.268 7.369-.388 16.49 .354 25.598 1.818 43.549 12.558 55.099 30.401 57.837 37.668 58.952 44.984 58.237 52.277 58.416 53.617 58.449 54.099 57.769 54.095 56.516 54.077 50.41 54.062 44.304 54.088 38.199 54.095 36.567 53.19 36.212 51.801 36.225 48.466 36.256 45.131 36.245 41.796 36.233 31.437 36.194 24.199 29.282 24.066 18.88 23.884 4.688 23.98-9.507 23.957-23.701 23.956-24.494 23.88-25.296 23.969-26.079 24.226-28.351 23.295-29.121 20.996-29.069 14.964-28.931 8.924-28.919 2.892-29.058 .522-29.112-.084-28.209-.057-26.007 .042-17.92-.008-9.831 0 0" fill="#ffffff"/>
<path transform="matrix(1,0,0,-1,555.8636,97.8828)" d="M0 0C.01 13.565 .075 27.131-.02 40.695-.036 43.096 .658 43.85 3.075 43.785 9.108 43.623 15.149 43.663 21.185 43.752 23.15 43.781 23.792 43.112 23.787 41.152 23.719 13.704 23.698-13.744 23.725-41.191 23.727-43.153 23.079-43.817 21.117-43.786 15.001-43.688 8.882-43.663 2.768-43.782 .577-43.825-.087-43.104-.072-40.933 .02-27.289-.01-13.644 0 0" fill="#ffffff"/>
<path transform="matrix(1,0,0,-1,567.8491,19.871994)" d="M0 0C3.172-.003 6.344-.052 9.515 .011 11.077 .043 11.833-.431 11.815-2.139 11.75-8.393 11.759-14.649 11.795-20.904 11.804-22.398 11.239-23.089 9.716-23.083 3.214-23.058-3.288-23.045-9.789-23.077-11.452-23.085-11.975-22.329-11.961-20.748-11.904-14.573-11.88-8.396-11.953-2.221-11.975-.379-11.17 .074-9.514 .031-6.345-.05-3.172 .003 0 0" fill="#ffffff"/>
<path transform="matrix(1,0,0,-1,286.153,192.1107)" d="M0 0-1.318 17.501-6.59 .981H-8.98L-14.222 17.44-15.57 0H-17.991L-16.214 20.995H-12.934L-7.724 4.812-2.513 20.995H.767L2.544 0Z" fill="#939598"/>
<path transform="matrix(1,0,0,-1,298.3203,190.3329)" d="M0 0C1.369 0 2.421 .449 3.157 1.348 3.893 2.247 4.26 3.678 4.26 5.639 4.26 7.601 3.893 9.052 3.157 9.991 2.421 10.932 1.369 11.402 0 11.402-1.369 11.402-2.421 10.927-3.157 9.976-3.892 9.027-4.26 7.58-4.26 5.639-4.26 3.698-3.892 2.272-3.157 1.364-2.421 .455-1.369 0 0 0M0-2.146C-1.021-2.146-1.951-1.992-2.789-1.686-3.627-1.379-4.347-.905-4.95-.261-5.553 .384-6.022 1.195-6.359 2.175-6.697 3.157-6.865 4.311-6.865 5.639-6.865 6.967-6.697 8.127-6.359 9.118-6.022 10.109-5.553 10.932-4.95 11.586-4.347 12.239-3.627 12.73-2.789 13.056-1.951 13.384-1.021 13.547 0 13.547 1.021 13.547 1.951 13.384 2.79 13.056 3.627 12.73 4.347 12.239 4.95 11.586 5.553 10.932 6.023 10.109 6.36 9.118 6.697 8.127 6.866 6.967 6.866 5.639 6.866 4.311 6.697 3.162 6.36 2.191 6.023 1.221 5.553 .414 4.95-.229 4.347-.874 3.627-1.353 2.79-1.671 1.951-1.987 1.021-2.146 0-2.146" fill="#939598"/>
<path transform="matrix(1,0,0,-1,314.9934,190.3329)" d="M0 0C.429 0 .904 .025 1.425 .076 1.947 .127 2.483 .204 3.034 .306V10.727C2.503 10.932 1.972 11.095 1.441 11.217 .909 11.34 .337 11.402-.276 11.402-1.706 11.402-2.82 10.922-3.617 9.961-4.413 9-4.812 7.499-4.812 5.456-4.812 3.452-4.388 2.043-3.54 1.226-2.692 .408-1.512 0 0 0M5.517 21.179V-1.44C4.659-1.625 3.759-1.788 2.82-1.931 1.88-2.073 .95-2.146 .031-2.146-1.093-2.146-2.11-2.007-3.019-1.732-3.928-1.455-4.71-1.017-5.363-.414-6.018 .189-6.524 .97-6.881 1.931-7.239 2.892-7.417 4.065-7.417 5.456-7.417 6.865-7.244 8.076-6.896 9.088-6.549 10.098-6.069 10.937-5.456 11.601-4.843 12.265-4.113 12.756-3.264 13.072-2.416 13.389-1.492 13.547-.49 13.547 .184 13.547 .812 13.501 1.395 13.409 1.977 13.318 2.523 13.199 3.034 13.056V20.842Z" fill="#939598"/>
<path transform="matrix(1,0,0,-1,336.6628,177.00009)" d="M0 0V-14.589C-2.023-15.182-4.036-15.479-6.038-15.479-7.06-15.479-7.938-15.345-8.674-15.08-9.41-14.815-10.012-14.436-10.483-13.946-10.953-13.455-11.3-12.863-11.524-12.168-11.749-11.473-11.862-10.697-11.862-9.838V-.338L-9.41 0V-9.563C-9.41-10.033-9.375-10.493-9.303-10.942-9.231-11.392-9.073-11.791-8.827-12.137-8.583-12.485-8.225-12.766-7.755-12.981-7.285-13.195-6.651-13.302-5.855-13.302-5.303-13.302-4.731-13.267-4.138-13.195-3.545-13.124-2.994-13.017-2.483-12.873V-.338Z" fill="#939598"/>
<path transform="matrix(1,0,0,-1,343.5898,169.1536)" d="M0 0V-22.957H-2.483V-.338Z" fill="#939598"/>
<path transform="matrix(1,0,0,-1,349.2896,187.6975)" d="M0 0C0-1.778 1.175-2.666 3.525-2.666 4.158-2.666 4.766-2.625 5.349-2.544 5.931-2.462 6.416-2.37 6.805-2.267V2.82L3.127 2.574C1.962 2.513 1.15 2.284 .69 1.885 .23 1.487 0 .859 0 0M3.433 10.973C4.516 10.973 5.43 10.855 6.176 10.621 6.922 10.385 7.525 10.054 7.984 9.624 8.444 9.195 8.776 8.684 8.981 8.091 9.185 7.499 9.287 6.845 9.287 6.13V-3.923C8.409-4.148 7.504-4.347 6.575-4.52 5.644-4.694 4.628-4.782 3.525-4.782 2.625-4.782 1.808-4.694 1.073-4.52 .337-4.347-.296-4.072-.827-3.693-1.359-3.315-1.773-2.825-2.068-2.221-2.365-1.62-2.513-.878-2.513 0-2.513 .878-2.375 1.604-2.1 2.177-1.824 2.748-1.44 3.208-.95 3.556-.459 3.902 .112 4.158 .767 4.322 1.42 4.485 2.125 4.587 2.881 4.629L6.805 4.843V5.916C6.805 6.284 6.768 6.641 6.697 6.989 6.626 7.335 6.468 7.648 6.222 7.923 5.977 8.2 5.629 8.419 5.18 8.582 4.731 8.745 4.127 8.828 3.371 8.828 2.534 8.828 1.701 8.736 .874 8.551 .046 8.368-.674 8.173-1.287 7.969L-1.042 10.237C-.327 10.462 .419 10.64 1.195 10.774 1.972 10.906 2.718 10.973 3.433 10.973" fill="#939598"/>
<path transform="matrix(1,0,0,-1,370.4996,179.1156)" d="M0 0C-.389 .041-.797 .061-1.226 .061-1.778 .061-2.345-.005-2.927-.138-3.51-.27-4.067-.459-4.597-.705V-12.995H-7.081V2.054L-5.303 1.472C-4.588 1.757-3.877 1.972-3.173 2.116-2.467 2.258-1.768 2.33-1.073 2.33-.767 2.33-.455 2.314-.138 2.284 .178 2.253 .48 2.217 .766 2.177L1.011-.122C.725-.082 .387-.041 0 0" fill="#939598"/>
<path transform="matrix(1,0,0,-1,398.4524,192.1107)" d="M0 0-1.318 17.501-6.59 .981H-8.98L-14.222 17.44-15.57 0H-17.991L-16.214 20.995H-12.934L-7.724 4.812-2.513 20.995H.767L2.544 0Z" fill="#939598"/>
<path transform="matrix(1,0,0,-1,406.0224,187.6975)" d="M0 0C0-1.778 1.175-2.666 3.525-2.666 4.158-2.666 4.766-2.625 5.349-2.544 5.931-2.462 6.416-2.37 6.805-2.267V2.82L3.127 2.574C1.962 2.513 1.15 2.284 .69 1.885 .23 1.487 0 .859 0 0M3.433 10.973C4.516 10.973 5.43 10.855 6.176 10.621 6.922 10.385 7.525 10.054 7.984 9.624 8.444 9.195 8.776 8.684 8.981 8.091 9.185 7.499 9.287 6.845 9.287 6.13V-3.923C8.409-4.148 7.504-4.347 6.575-4.52 5.644-4.694 4.628-4.782 3.525-4.782 2.625-4.782 1.808-4.694 1.073-4.52 .337-4.347-.296-4.072-.827-3.693-1.359-3.315-1.773-2.825-2.068-2.221-2.365-1.62-2.513-.878-2.513 0-2.513 .878-2.375 1.604-2.1 2.177-1.824 2.748-1.44 3.208-.95 3.556-.459 3.902 .112 4.158 .767 4.322 1.42 4.485 2.125 4.587 2.881 4.629L6.805 4.843V5.916C6.805 6.284 6.768 6.641 6.697 6.989 6.626 7.335 6.468 7.648 6.222 7.923 5.977 8.2 5.629 8.419 5.18 8.582 4.731 8.745 4.127 8.828 3.371 8.828 2.534 8.828 1.701 8.736 .874 8.551 .046 8.368-.674 8.173-1.287 7.969L-1.042 10.237C-.327 10.462 .419 10.64 1.195 10.774 1.972 10.906 2.718 10.973 3.433 10.973" fill="#939598"/>
<path transform="matrix(1,0,0,-1,425.6999,176.786)" d="M0 0C2.063 0 3.555-.506 4.474-1.517 5.394-2.528 5.854-3.904 5.854-5.639V-15.325H3.371V-5.916C3.371-4.627 3.1-3.683 2.559-3.08 2.017-2.477 1.113-2.175-.154-2.175-.767-2.175-1.374-2.253-1.977-2.406-2.58-2.559-3.147-2.758-3.678-3.004V-15.325H-6.161V-.275L-4.444-.827C-3.73-.562-2.999-.358-2.253-.214-1.508-.071-.756 0 0 0" fill="#939598"/>
<path transform="matrix(1,0,0,-1,437.0702,187.6975)" d="M0 0C0-1.778 1.175-2.666 3.525-2.666 4.158-2.666 4.766-2.625 5.349-2.544 5.931-2.462 6.416-2.37 6.805-2.267V2.82L3.127 2.574C1.962 2.513 1.15 2.284 .69 1.885 .23 1.487 0 .859 0 0M3.433 10.973C4.516 10.973 5.43 10.855 6.176 10.621 6.922 10.385 7.525 10.054 7.984 9.624 8.444 9.195 8.776 8.684 8.981 8.091 9.185 7.499 9.287 6.845 9.287 6.13V-3.923C8.409-4.148 7.504-4.347 6.575-4.52 5.644-4.694 4.628-4.782 3.525-4.782 2.625-4.782 1.808-4.694 1.073-4.52 .337-4.347-.296-4.072-.827-3.693-1.359-3.315-1.773-2.825-2.068-2.221-2.365-1.62-2.513-.878-2.513 0-2.513 .878-2.375 1.604-2.1 2.177-1.824 2.748-1.44 3.208-.95 3.556-.459 3.902 .112 4.158 .767 4.322 1.42 4.485 2.125 4.587 2.881 4.629L6.805 4.843V5.916C6.805 6.284 6.768 6.641 6.697 6.989 6.626 7.335 6.468 7.648 6.222 7.923 5.977 8.2 5.629 8.419 5.18 8.582 4.731 8.745 4.127 8.828 3.371 8.828 2.534 8.828 1.701 8.736 .874 8.551 .046 8.368-.674 8.173-1.287 7.969L-1.042 10.237C-.327 10.462 .419 10.64 1.195 10.774 1.972 10.906 2.718 10.973 3.433 10.973" fill="#939598"/>
<path transform="matrix(1,0,0,-1,451.9661,181.7817)" d="M0 0C0-.839 .301-1.574 .904-2.207 1.506-2.841 2.472-3.382 3.8-3.831L4.72-3.556C5.578-3.291 6.299-2.907 6.881-2.406 7.463-1.905 7.754-1.185 7.754-.245 7.754 .735 7.412 1.506 6.728 2.068 6.043 2.63 5.057 2.912 3.77 2.912 2.544 2.912 1.609 2.641 .965 2.099 .322 1.557 0 .858 0 0M6.345-8.091C7.999-8.091 9.256-8.393 10.114-8.996 10.973-9.599 11.401-10.604 11.401-12.015 11.401-13.669 10.824-14.895 9.67-15.693 8.516-16.49 6.723-16.888 4.291-16.888 1.921-16.888-.286-16.469-2.33-15.632L-2.574-13.241C-1.492-13.732-.394-14.099 .72-14.345 1.834-14.589 3.034-14.712 4.322-14.712 5.997-14.712 7.182-14.493 7.877-14.053 8.571-13.613 8.919-12.975 8.919-12.137 8.919-11.524 8.719-11.054 8.321-10.728 7.923-10.4 7.162-10.237 6.038-10.237H3.249C2.779-10.237 2.288-10.217 1.778-10.176 1.267-10.135 .797-10.022 .368-9.838-.061-9.655-.419-9.385-.705-9.027-.991-8.67-1.134-8.164-1.134-7.509-1.134-6.794-.9-6.233-.429-5.824 .041-5.415 .602-5.079 1.257-4.812 .092-4.301-.812-3.647-1.456-2.851-2.1-2.053-2.421-1.073-2.421 .092-2.421 1.562-1.9 2.753-.858 3.663 .184 4.571 1.736 5.026 3.8 5.026 4.332 5.026 4.827 4.991 5.287 4.919 5.747 4.848 6.181 4.751 6.59 4.627H11.708L12.045 2.574H9.379C9.869 1.778 10.114 .847 10.114-.214 10.114-1.523 9.736-2.595 8.98-3.433 8.224-4.271 7.111-4.904 5.639-5.333L3.126-6.099C2.554-6.283 2.119-6.452 1.824-6.605 1.527-6.758 1.379-6.979 1.379-7.264 1.379-7.551 1.497-7.76 1.732-7.892 1.966-8.025 2.411-8.091 3.065-8.091Z" fill="#939598"/>
<path transform="matrix(1,0,0,-1,471.6436,178.8696)" d="M0 0C-1.145 0-2.065-.409-2.758-1.226-3.454-2.044-3.882-3.178-4.046-4.629H3.739C3.698-3.157 3.387-2.019 2.804-1.211 2.222-.404 1.287 0 0 0M6.222-5.333C6.222-5.6 6.211-5.844 6.191-6.069 6.171-6.294 6.15-6.488 6.13-6.651H-4.077C-3.975-8.429-3.505-9.675-2.667-10.39-1.829-11.106-.624-11.463 .95-11.463 1.747-11.463 2.508-11.392 3.233-11.249 3.958-11.106 4.71-10.891 5.486-10.606L5.363-12.812C4.628-13.078 3.887-13.277 3.141-13.409 2.395-13.542 1.604-13.609 .766-13.609-1.563-13.609-3.382-13.012-4.69-11.816-5.997-10.621-6.651-8.675-6.651-5.977-6.651-4.649-6.483-3.484-6.145-2.483-5.808-1.482-5.339-.644-4.736 .031-4.133 .705-3.428 1.215-2.621 1.562-1.814 1.91-.93 2.084 .031 2.084 2.115 2.084 3.667 1.44 4.689 .153 5.711-1.134 6.222-2.963 6.222-5.333" fill="#939598"/>
<path transform="matrix(1,0,0,-1,495.8866,176.786)" d="M0 0C1.798 0 3.173-.486 4.123-1.455 5.073-2.426 5.548-3.841 5.548-5.7V-15.325H3.065V-5.885C3.065-4.68 2.799-3.76 2.268-3.126 1.737-2.493 .889-2.175-.276-2.175-.807-2.175-1.359-2.268-1.931-2.452-2.503-2.635-3.055-2.871-3.586-3.157-3.463-3.525-3.366-3.923-3.294-4.352-3.223-4.782-3.187-5.252-3.187-5.762V-15.325H-5.639V-5.885C-5.639-4.557-5.93-3.607-6.513-3.034-7.095-2.462-7.938-2.175-9.041-2.175-9.532-2.175-10.048-2.248-10.589-2.391-11.131-2.534-11.657-2.717-12.167-2.943V-15.325H-14.651V-.275L-12.934-.827C-12.219-.562-11.514-.358-10.819-.214-10.125-.071-9.43 0-8.735 0-7.897 0-7.152-.107-6.498-.321-5.844-.537-5.282-.869-4.812-1.318-4.056-.91-3.275-.587-2.467-.352-1.66-.117-.838 0 0 0" fill="#939598"/>
<path transform="matrix(1,0,0,-1,511.3037,178.8696)" d="M0 0C-1.145 0-2.065-.409-2.758-1.226-3.454-2.044-3.882-3.178-4.046-4.629H3.739C3.698-3.157 3.387-2.019 2.804-1.211 2.222-.404 1.287 0 0 0M6.222-5.333C6.222-5.6 6.211-5.844 6.191-6.069 6.171-6.294 6.15-6.488 6.13-6.651H-4.077C-3.975-8.429-3.505-9.675-2.667-10.39-1.829-11.106-.624-11.463 .95-11.463 1.747-11.463 2.508-11.392 3.233-11.249 3.958-11.106 4.71-10.891 5.486-10.606L5.363-12.812C4.628-13.078 3.887-13.277 3.141-13.409 2.395-13.542 1.604-13.609 .766-13.609-1.563-13.609-3.382-13.012-4.69-11.816-5.997-10.621-6.651-8.675-6.651-5.977-6.651-4.649-6.483-3.484-6.145-2.483-5.808-1.482-5.339-.644-4.736 .031-4.133 .705-3.428 1.215-2.621 1.562-1.814 1.91-.93 2.084 .031 2.084 2.115 2.084 3.667 1.44 4.689 .153 5.711-1.134 6.222-2.963 6.222-5.333" fill="#939598"/>
<path transform="matrix(1,0,0,-1,527.0573,176.786)" d="M0 0C2.063 0 3.555-.506 4.474-1.517 5.394-2.528 5.854-3.904 5.854-5.639V-15.325H3.371V-5.916C3.371-4.627 3.1-3.683 2.559-3.08 2.017-2.477 1.113-2.175-.154-2.175-.767-2.175-1.374-2.253-1.977-2.406-2.58-2.559-3.147-2.758-3.678-3.004V-15.325H-6.161V-.275L-4.444-.827C-3.73-.562-2.999-.358-2.253-.214-1.508-.071-.756 0 0 0" fill="#939598"/>
<path transform="matrix(1,0,0,-1,542.6879,190.30229)" d="M0 0C.43 0 .884 .051 1.364 .153 1.844 .255 2.391 .429 3.004 .674L2.973-1.501C2.319-1.747 1.717-1.921 1.165-2.022 .613-2.124 .082-2.177-.429-2.177-1.042-2.177-1.604-2.099-2.115-1.946-2.626-1.793-3.065-1.533-3.433-1.165-3.8-.797-4.087-.317-4.291 .275-4.495 .868-4.597 1.603-4.597 2.483V11.034H-7.417L-7.111 13.148H-4.597V17.225L-2.115 17.563V13.148H2.575L2.299 11.034H-2.115V2.574C-2.115 1.737-1.972 1.099-1.685 .659-1.4 .219-.838 0 0 0" fill="#939598"/>
<path transform="matrix(1,0,0,-1,569.1389,173.4764)" d="M0 0H-6.314V-18.634H-8.919V0H-15.386V2.36H.306Z" fill="#939598"/>
<path transform="matrix(1,0,0,-1,575.0534,190.3329)" d="M0 0C1.369 0 2.421 .449 3.157 1.348 3.893 2.247 4.26 3.678 4.26 5.639 4.26 7.601 3.893 9.052 3.157 9.991 2.421 10.932 1.369 11.402 0 11.402-1.369 11.402-2.421 10.927-3.157 9.976-3.892 9.027-4.26 7.58-4.26 5.639-4.26 3.698-3.892 2.272-3.157 1.364-2.421 .455-1.369 0 0 0M0-2.146C-1.021-2.146-1.951-1.992-2.789-1.686-3.627-1.379-4.347-.905-4.95-.261-5.553 .384-6.022 1.195-6.359 2.175-6.697 3.157-6.865 4.311-6.865 5.639-6.865 6.967-6.697 8.127-6.359 9.118-6.022 10.109-5.553 10.932-4.95 11.586-4.347 12.239-3.627 12.73-2.789 13.056-1.951 13.384-1.021 13.547 0 13.547 1.021 13.547 1.951 13.384 2.79 13.056 3.627 12.73 4.347 12.239 4.95 11.586 5.553 10.932 6.023 10.109 6.36 9.118 6.697 8.127 6.866 6.967 6.866 5.639 6.866 4.311 6.697 3.162 6.36 2.191 6.023 1.221 5.553 .414 4.95-.229 4.347-.874 3.627-1.353 2.79-1.671 1.951-1.987 1.021-2.146 0-2.146" fill="#939598"/>
<path transform="matrix(1,0,0,-1,591.1747,190.3329)" d="M0 0C1.369 0 2.421 .449 3.157 1.348 3.893 2.247 4.26 3.678 4.26 5.639 4.26 7.601 3.893 9.052 3.157 9.991 2.421 10.932 1.369 11.402 0 11.402-1.369 11.402-2.421 10.927-3.157 9.976-3.892 9.027-4.26 7.58-4.26 5.639-4.26 3.698-3.892 2.272-3.157 1.364-2.421 .455-1.369 0 0 0M0-2.146C-1.021-2.146-1.951-1.992-2.789-1.686-3.627-1.379-4.347-.905-4.95-.261-5.553 .384-6.022 1.195-6.359 2.175-6.697 3.157-6.865 4.311-6.865 5.639-6.865 6.967-6.697 8.127-6.359 9.118-6.022 10.109-5.553 10.932-4.95 11.586-4.347 12.239-3.627 12.73-2.789 13.056-1.951 13.384-1.021 13.547 0 13.547 1.021 13.547 1.951 13.384 2.79 13.056 3.627 12.73 4.347 12.239 4.95 11.586 5.553 10.932 6.023 10.109 6.36 9.118 6.697 8.127 6.866 6.967 6.866 5.639 6.866 4.311 6.697 3.162 6.36 2.191 6.023 1.221 5.553 .414 4.95-.229 4.347-.874 3.627-1.353 2.79-1.671 1.951-1.987 1.021-2.146 0-2.146" fill="#939598"/>
<path transform="matrix(1,0,0,-1,603.9869,169.1536)" d="M0 0V-22.957H-2.483V-.338Z" fill="#939598"/>
<path transform="matrix(1,0,0,-1,609.825,189.99649)" d="M0 0C.93-.204 1.956-.306 3.08-.306 4.347-.306 5.277-.107 5.869 .292 6.462 .691 6.758 1.338 6.758 2.238 6.758 2.729 6.676 3.112 6.513 3.387 6.349 3.663 6.104 3.878 5.777 4.031 5.45 4.184 5.057 4.281 4.597 4.323 4.137 4.362 3.611 4.403 3.019 4.445 2.283 4.466 1.589 4.542 .935 4.675 .28 4.807-.291 5.038-.782 5.364-1.272 5.692-1.661 6.125-1.947 6.666-2.233 7.208-2.376 7.898-2.376 8.736-2.376 10.227-1.86 11.366-.828 12.153 .204 12.939 1.68 13.333 3.601 13.333 5.134 13.333 6.645 13.078 8.137 12.567L8.382 10.298C7.79 10.462 7.069 10.641 6.222 10.835 5.374 11.029 4.51 11.127 3.632 11.127 2.406 11.127 1.511 10.932 .95 10.544 .388 10.156 .107 9.563 .107 8.767 .107 8.317 .204 7.959 .398 7.694 .592 7.427 .858 7.223 1.195 7.081 1.532 6.938 1.921 6.84 2.36 6.79 2.799 6.738 3.264 6.702 3.754 6.682 4.49 6.661 5.184 6.585 5.839 6.452 6.492 6.32 7.075 6.089 7.586 5.763 8.096 5.435 8.5 4.992 8.797 4.43 9.092 3.868 9.241 3.136 9.241 2.238 9.241-.909 7.187-2.483 3.08-2.483 1.343-2.483-.383-2.206-2.1-1.654L-2.345 .675C-1.712 .429-.93 .205 0 0" fill="#939598"/>
</g>
</g>
</svg>
